<?xml version="1.0" standalone="no"?>
<!DOCTYPE svg PUBLIC "-//W3C//DTD SVG 20010904//EN"
 "http://www.w3.org/TR/2001/REC-SVG-20010904/DTD/svg10.dtd">
<svg version="1.0" xmlns="http://www.w3.org/2000/svg"
 width="300.000000pt" height="332.000000pt" viewBox="0 0 300.000000 332.000000"
 preserveAspectRatio="xMidYMid meet">
<metadata>
Created by potrace 1.10, written by Peter Selinger 2001-2011
</metadata>
<g transform="translate(0.000000,332.000000) scale(0.100000,-0.100000)"
fill="#000000" stroke="none">
<path d="M1930 2963 c0 -9 -17 -13 -52 -13 -119 -1 -184 -36 -231 -125 -33
-63 -30 -182 6 -255 34 -65 104 -141 207 -220 96 -74 104 -84 124 -152 20 -70
20 -105 1 -142 -20 -38 -12 -45 12 -10 23 36 22 109 -3 184 -16 45 -30 63 -84
108 -141 116 -206 181 -235 233 -27 48 -30 63 -30 139 0 63 5 94 18 119 18 33
19 33 33 12 20 -27 29 -27 139 10 51 18 100 29 108 26 16 -6 32 -86 42 -202 3
-38 11 -92 16 -118 6 -26 10 -50 7 -52 -2 -2 -46 3 -98 11 -104 15 -180 18
-180 6 0 -13 56 -32 103 -34 31 -2 47 -7 47 -15 0 -7 5 -13 10 -13 6 0 10 4
10 8 0 4 9 8 20 8 11 0 20 -4 20 -9 0 -5 7 -4 15 3 12 10 15 9 15 -6 0 -15 2
-16 9 -5 6 9 11 10 15 2 4 -6 16 -11 26 -11 26 0 88 -123 136 -267 58 -171 62
-260 33 -753 -5 -96 -15 -199 -20 -228 -25 -128 -133 -181 -499 -248 -112 -20
-191 -27 -345 -32 -239 -6 -229 -21 20 -29 186 -6 272 5 538 67 182 43 209 54
256 101 70 70 70 69 87 664 6 224 5 274 -10 364 -23 136 -58 228 -113 299 -42
54 -43 57 -22 60 17 3 19 6 8 13 -11 7 -9 9 8 9 12 0 25 5 28 11 5 7 -4 8 -28
4 -52 -10 -63 14 -76 172 -11 135 -34 229 -72 288 -10 17 -19 24 -19 18z
m-129 -78 c-18 -8 -41 -15 -50 -15 -13 1 -13 3 3 15 11 8 34 15 50 15 l31 -1
-34 -14z"/>
<path d="M910 2843 c-108 -17 -168 -50 -238 -133 -58 -68 -134 -181 -145 -215
-7 -20 0 -13 68 79 38 50 163 136 239 165 68 25 177 28 279 6 79 -17 94 -13
102 25 19 85 -79 108 -305 73z m246 -37 c33 -24 8 -29 -77 -15 -55 9 -75 15
-63 20 33 13 119 10 140 -5z"/>
<path d="M1166 2455 c-38 -19 -94 -39 -125 -44 -126 -24 -257 -54 -271 -62
-10 -7 0 -8 29 -3 47 7 48 2 8 -43 -11 -13 -18 -25 -15 -28 3 -3 19 10 36 30
17 19 34 35 38 35 3 0 3 -16 0 -35 -9 -47 8 -45 20 3 l10 37 14 -27 c18 -37
28 -35 22 5 l-5 32 28 -25 27 -25 -8 30 -7 30 22 -19 c19 -17 21 -18 21 -2 0
9 5 14 10 11 6 -3 10 -2 10 4 0 6 7 8 15 5 8 -4 15 -1 15 6 0 7 7 10 15 6 10
-3 15 1 15 11 0 13 3 14 12 5 17 -17 28 -15 28 4 0 8 4 12 10 9 9 -6 20 1 61
38 11 10 33 20 49 24 17 3 30 9 30 14 0 18 -46 7 -114 -26z"/>
<path d="M1936 2123 c-14 -28 -14 -38 -4 -44 20 -12 38 10 38 47 0 44 -12 43
-34 -3z"/>
<path d="M1667 2104 c-34 -18 -34 -57 -1 -62 21 -3 74 47 74 69 0 14 -42 10
-73 -7z"/>
<path d="M1470 2060 c-34 -64 73 -126 155 -90 13 6 1 7 -35 3 -72 -7 -105 16
-103 71 1 41 -2 44 -17 16z"/>
<path d="M1965 1834 c-18 -10 -52 -16 -84 -15 -70 1 -127 -26 -250 -117 -52
-39 -114 -80 -138 -92 -24 -12 -42 -24 -40 -27 9 -8 91 38 187 107 131 93 154
103 231 105 36 2 75 8 87 14 53 29 86 9 124 -74 14 -31 23 -44 26 -33 7 35
-68 148 -100 148 -7 0 -26 -7 -43 -16z"/>
<path d="M1950 1688 c-112 -12 -223 -36 -335 -74 -55 -18 -120 -38 -145 -45
l-45 -12 105 -17 c58 -10 149 -30 204 -44 115 -30 132 -31 211 -11 71 19 122
55 142 102 12 31 12 38 -2 60 -21 31 -30 24 -14 -11 17 -36 -10 -72 -81 -108
-70 -36 -149 -37 -285 -3 -55 14 -119 25 -142 25 -24 0 -43 4 -43 8 0 14 213
73 340 93 69 11 138 23 155 27 51 13 14 19 -65 10z"/>
<path d="M1495 848 c-40 -114 -29 -281 25 -388 32 -63 40 -46 11 23 -24 58
-26 72 -26 220 0 86 -1 157 -3 157 -1 0 -5 -6 -7 -12z"/>
</g>
</svg>
