<?xml version="1.0" standalone="no"?>
<!DOCTYPE svg PUBLIC "-//W3C//DTD SVG 20010904//EN"
 "http://www.w3.org/TR/2001/REC-SVG-20010904/DTD/svg10.dtd">
<svg version="1.0" xmlns="http://www.w3.org/2000/svg"
 width="222.000000pt" height="240.000000pt" viewBox="0 0 222.000000 240.000000"
 preserveAspectRatio="xMidYMid meet">
<metadata>
Created by potrace 1.16, written by Peter Selinger 2001-2019
</metadata>
<g transform="translate(0.000000,240.000000) scale(0.100000,-0.100000)"
fill="#000000" stroke="none">
<path d="M800 2075 c-8 -2 -49 -9 -90 -15 -208 -34 -490 -202 -490 -292 0 -28
15 -21 33 16 21 46 102 108 207 161 166 82 288 111 448 103 88 -4 110 -9 165
-36 114 -56 185 -148 227 -292 20 -68 23 -108 30 -435 7 -317 10 -369 28 -437
23 -85 42 -126 79 -177 l26 -33 -24 13 c-43 22 -136 126 -162 181 -45 92 -57
161 -67 388 -13 301 -33 403 -93 482 -40 52 -95 84 -157 93 -50 7 -126 -7
-144 -26 -8 -9 -8 -10 1 -5 6 3 37 11 68 17 80 15 150 -7 199 -62 75 -82 92
-158 106 -476 10 -234 24 -314 71 -409 42 -85 139 -177 249 -236 125 -67 181
-81 342 -82 158 -1 158 -1 32 -77 -302 -182 -565 -217 -793 -107 -94 46 -197
151 -244 248 -64 133 -95 276 -122 557 -26 278 -55 381 -124 451 -43 43 -91
62 -172 69 -73 6 -179 -4 -179 -17 0 -4 51 -8 112 -7 123 1 158 -9 218 -60 65
-54 99 -177 120 -433 41 -488 143 -712 382 -828 108 -52 170 -66 298 -64 125
1 213 22 350 82 102 45 323 186 317 203 -2 6 -56 9 -149 8 -270 -4 -406 57
-480 214 -49 105 -60 193 -60 445 1 297 -11 456 -42 553 -55 174 -168 280
-334 316 -48 10 -144 13 -182 6z"/>
<path d="M874 1543 c28 -55 55 -191 66 -338 13 -161 22 -216 51 -301 66 -202
250 -373 468 -438 91 -27 92 -17 1 13 -148 48 -268 130 -349 239 -92 125 -134
245 -151 439 -19 206 -56 379 -88 405 -13 11 -13 8 2 -19z"/>
</g>
</svg>
