<?xml version="1.0" standalone="no"?>
<!DOCTYPE svg PUBLIC "-//W3C//DTD SVG 20010904//EN"
 "http://www.w3.org/TR/2001/REC-SVG-20010904/DTD/svg10.dtd">
<svg version="1.0" xmlns="http://www.w3.org/2000/svg"
 width="207.000000pt" height="292.000000pt" viewBox="0 0 207.000000 292.000000"
 preserveAspectRatio="xMidYMid meet">
<metadata>
Created by potrace 1.16, written by Peter Selinger 2001-2019
</metadata>
<g transform="translate(0.000000,292.000000) scale(0.100000,-0.100000)"
fill="#000000" stroke="none">
<path d="M410 2739 c0 -3 18 -44 39 -90 119 -256 182 -501 182 -711 0 -168
-30 -265 -131 -432 -105 -174 -140 -273 -140 -394 0 -88 28 -250 75 -436 45
-178 133 -461 141 -453 2 2 -9 62 -26 132 -46 195 -107 508 -120 624 -15 121
-8 220 19 290 11 27 50 99 86 160 131 221 160 311 159 496 -2 195 -51 378
-160 600 -51 102 -123 228 -124 214z"/>
<path d="M1479 2658 c-151 -258 -231 -511 -232 -738 -1 -176 31 -273 175 -520
76 -130 98 -200 98 -310 0 -122 -51 -412 -131 -748 -16 -68 -29 -126 -28 -130
1 -14 71 195 110 333 67 230 99 388 106 522 6 116 5 127 -22 208 -17 52 -54
129 -93 193 -128 211 -157 310 -149 512 9 200 61 401 172 651 24 55 41 99 39
99 -2 0 -22 -32 -45 -72z"/>
</g>
</svg>
