<?xml version="1.0" standalone="no"?>
<!DOCTYPE svg PUBLIC "-//W3C//DTD SVG 20010904//EN"
 "http://www.w3.org/TR/2001/REC-SVG-20010904/DTD/svg10.dtd">
<svg version="1.0" xmlns="http://www.w3.org/2000/svg"
 width="246.000000pt" height="231.000000pt" viewBox="0 0 246.000000 231.000000"
 preserveAspectRatio="xMidYMid meet">
<metadata>
Created by potrace 1.16, written by Peter Selinger 2001-2019
</metadata>
<g transform="translate(0.000000,231.000000) scale(0.100000,-0.100000)"
fill="#000000" stroke="none">
<path d="M580 1957 c0 -28 41 -212 68 -307 24 -82 57 -146 82 -162 19 -12 20
-24 20 -214 0 -249 -9 -286 -84 -360 -41 -40 -75 -61 -173 -104 -68 -29 -123
-57 -123 -61 0 -21 28 -15 141 33 102 43 133 61 174 103 86 86 90 98 93 343 2
116 5 212 6 212 2 0 41 -20 87 -44 138 -73 259 -116 329 -116 72 0 208 47 338
116 l82 44 0 -190 c0 -147 4 -200 16 -236 37 -111 102 -168 269 -238 122 -51
128 -53 123 -31 -2 9 -56 39 -128 71 -139 61 -177 92 -218 174 -26 54 -27 61
-31 263 l-3 209 30 31 c16 18 37 46 45 62 36 72 115 401 100 416 -18 18 -29
-13 -68 -181 -42 -187 -66 -242 -127 -295 -77 -66 -348 -185 -423 -185 -72 0
-288 87 -394 159 -86 59 -107 101 -162 320 -25 102 -50 186 -57 189 -7 2 -12
-6 -12 -21z"/>
<path d="M866 1311 c-4 -6 0 -51 9 -101 36 -209 122 -427 155 -394 8 8 4 23
-15 55 -36 63 -83 216 -104 338 -16 97 -30 127 -45 102z"/>
<path d="M1516 1311 c-3 -5 -15 -57 -26 -115 -27 -137 -54 -224 -96 -308 -31
-61 -32 -91 -4 -73 45 28 150 364 150 481 0 24 -14 32 -24 15z"/>
<path d="M470 635 c0 -9 14 -16 38 -20 118 -20 249 -49 336 -75 67 -20 103
-27 110 -20 6 6 6 13 0 19 -23 22 -390 111 -460 111 -14 0 -24 -6 -24 -15z"/>
<path d="M1850 644 c-121 -21 -387 -90 -404 -105 -6 -6 -6 -13 0 -19 6 -6 52
2 131 24 67 19 164 41 215 50 116 21 141 28 142 41 1 11 -43 15 -84 9z"/>
</g>
</svg>
