<?xml version="1.0" encoding="iso-8859-1"?>
<!-- Uploaded to: SVG Repo, www.svgrepo.com, Generator: SVG Repo Mixer Tools -->
<svg fill="#000000" height="800px" width="800px" version="1.1" id="Layer_1" xmlns="http://www.w3.org/2000/svg" xmlns:xlink="http://www.w3.org/1999/xlink" 
	 viewBox="0 0 512.002 512.002" xml:space="preserve">
<g>
	<g>
		<path d="M471.7,175.324l-3.836-13.538c-0.571-2.014-14.425-49.786-52.929-88.29c-36.99-36.99-82.523-51.228-87.836-52.797
			c2.44-6.789,4.661-13.686,6.625-20.699l-16.595,0.002c-6.634,22.991-16.024,44.668-27.73,64.727
			c-4.616-1.607-50.271-16.806-102.29-8.134c-53.712,8.951-92.754,39.772-94.389,41.08l-10.99,8.786l13.245,4.747
			c1.552,0.556,30.981,10.903,69.654,10.903c10.433,0,21.544-0.753,32.956-2.656c30.788-5.131,56.736-17.442,73.602-27.267
			c-51.825,69.141-133.546,113.319-223.044,115.765c-4.351,0.119-7.842,3.588-7.842,7.941c0,4.485,3.698,8.183,8.18,8.058
			c36.316-1.004,71.455-8.678,104.079-21.908v43.316c-21.19,1.669-40.815,13.095-55.74,32.612
			c-15.711,20.546-24.364,47.747-24.364,76.592s8.653,56.045,24.364,76.592c16.191,21.172,37.911,32.833,61.161,32.833
			c10.397,0,20.521-2.39,30.199-7.096c3.024,5.351,6.375,10.448,10.044,15.246c19.658,25.706,45.988,39.864,74.143,39.864
			c28.153,0,54.484-14.158,74.143-39.864c19.179-25.08,29.741-58.31,29.741-93.567s-10.563-68.487-29.741-93.567
			c-18.031-23.579-41.678-37.432-67.194-39.566V106.711c13.279-16.832,24.87-35.107,34.462-54.59
			c0.61,19.463,4.037,49.979,17.405,80.646c21.758,49.917,61.155,80.28,62.823,81.548l11.219,8.538l1.359-14.033
			c0.137-1.417,2.693-29.557-5.143-64.611c29.057,19.27,55.239,26.861,56.72,27.28L471.7,175.324z M195.002,103.955
			c-31.772,5.294-61.565,0.764-78.97-3.211c15.177-9.406,41.89-23.354,73.66-28.649c20.208-3.368,39.607-2.759,55.536-0.849
			l-38.386,6.398l2.583,15.5l38.46-6.41C233.446,93.705,215.278,100.576,195.002,103.955z M168.275,195.151
			c35.929-16.978,68.354-40.848,95.329-70.044V245.61c-18.746,1.983-36.428,10.307-51.542,24.184
			c-12.583-13.184-27.686-21.409-43.786-23.871V195.151z M168.275,447.208v-7.229h-15.714v8.014
			c-35.971-3.726-64.391-44.206-64.391-93.431s28.421-89.704,64.391-93.431v19.617h-8.381v15.714h32.475v-15.714h-8.38v-18.845
			c11.998,2.422,23.341,9.035,32.97,19.317c-1.021,1.234-2.031,2.489-3.02,3.782c-19.18,25.08-29.742,58.31-29.742,93.567
			c0,22.814,4.428,44.774,12.746,64.232C176.994,444.85,172.666,446.308,168.275,447.208z M360.539,378.569
			c0,61.787-35.84,112.606-81.222,117.353v-7.755h-15.714v7.539c-44.517-5.893-79.406-56.176-79.406-117.137
			s34.888-111.244,79.406-117.137v26.649h-7.333v15.714h32.475v-15.714h-9.428v-26.865
			C324.699,265.963,360.539,316.783,360.539,378.569z M345.59,126.487c-9.994-22.927-13.95-46.142-15.399-63.731
			c8.381,16.674,21.186,37.306,39.682,55.802c3.616,3.616,7.315,7.016,11.05,10.206c8.004,24.263,10.039,47.403,10.369,62.199
			C378.488,178.562,358.494,156.091,345.59,126.487z M380.983,107.447c-14.484-14.484-25.264-30.625-32.968-44.697l27.515,27.515
			l11.11-11.111L359.125,51.64c14.072,7.704,30.213,18.484,44.697,32.968c22.774,22.774,36.404,49.652,43.288,66.128
			C430.635,143.851,403.757,130.222,380.983,107.447z"/>
	</g>
</g>
<g>
	<g>
		<path d="M232.212,360.363h-15.714c0,37.712,10.476,72.405,28.022,92.986l11.958-10.129
			C241.511,425.664,232.212,393.886,232.212,360.363z"/>
	</g>
</g>
<g>
	<g>
		<path d="M122.412,336.199L106.699,336c-0.268,21.173,2.832,41.477,8.966,58.715l14.804-5.268
			C124.952,373.944,122.165,355.532,122.412,336.199z"/>
	</g>
</g>
</svg>