<?xml version="1.0" encoding="iso-8859-1"?>
<!-- Uploaded to: SVG Repo, www.svgrepo.com, Generator: SVG Repo Mixer Tools -->
<svg fill="#000000" height="800px" width="800px" version="1.1" id="Layer_1" xmlns="http://www.w3.org/2000/svg" xmlns:xlink="http://www.w3.org/1999/xlink" 
	 viewBox="0 0 512 512" xml:space="preserve">
<g>
	<g>
		<path d="M467.101,159.249L365.323,57.47c-1.75-1.751-4.125-2.734-6.6-2.734c-2.476,0-4.85,0.983-6.6,2.734l-81.655,81.654
			c-2.799-3.319-5.751-6.554-8.878-9.681L159.806,27.66c-3.646-3.646-9.556-3.646-13.201,0L44.822,129.444
			c-59.763,59.763-59.763,157.004,0,216.767l99.049,99.049v32.48c0,5.155,4.18,9.335,9.335,9.335c5.155,0,9.335-4.18,9.335-9.335
			v-32.48l78.924-78.924c2.824,3.347,5.781,6.593,8.877,9.687c28.937,28.954,67.427,44.899,108.381,44.899
			c40.953,0,79.444-15.946,108.38-44.898C496.055,347.071,512,308.578,512,267.637S496.055,188.202,467.101,159.249z
			 M248.388,333.007l-85.848,85.848v-77.632l46.889-26.434c4.491-2.532,6.079-8.225,3.547-12.715s-8.223-6.08-12.715-3.547
			l-37.721,21.265v-53.399l75.969-42.827c4.491-2.532,6.079-8.225,3.547-12.715c-2.532-4.491-8.223-6.08-12.715-3.547
			l-66.801,37.659v-56.32l46.889-26.434c4.491-2.532,6.079-8.225,3.547-12.715c-2.532-4.491-8.223-6.079-12.715-3.547L162.54,167.21
			V98.386c0-5.155-4.18-9.335-9.335-9.335c-5.155,0-9.335,4.18-9.335,9.335v68.823l-37.721-21.265
			c-4.492-2.533-10.184-0.945-12.715,3.547c-2.532,4.491-0.943,10.184,3.547,12.715l46.889,26.434v56.32L77.07,207.301
			c-4.491-2.533-10.185-0.945-12.715,3.547c-2.532,4.491-0.943,10.184,3.547,12.715l75.969,42.827v53.398l-37.721-21.265
			c-4.492-2.533-10.184-0.945-12.715,3.547c-2.532,4.491-0.943,10.184,3.547,12.715l46.889,26.434v77.635l-85.848-85.848
			c-52.483-52.484-52.483-137.88,0-190.364l95.183-95.183l95.183,95.183C300.871,195.126,300.871,280.522,248.388,333.007z
			 M453.899,362.826c-25.412,25.426-59.211,39.428-95.177,39.428c-35.965,0-69.766-14.002-95.178-39.429
			c-3.098-3.098-6.034-6.37-8.818-9.748l6.864-6.864c52.057-52.057,58.761-132.546,20.13-191.935l77.004-77.004l95.178,95.179
			c25.427,25.427,39.43,59.231,39.43,95.187C493.33,303.593,479.327,337.396,453.899,362.826z"/>
	</g>
</g>
<g>
	<g>
		<path d="M442.928,183.423l-20.685-20.685c-3.646-3.646-9.556-3.646-13.201,0c-3.646,3.646-3.646,9.556,0,13.201l20.685,20.685
			c39.156,39.156,39.154,102.872-0.006,142.032c-3.646,3.646-3.646,9.556,0,13.201c1.822,1.822,4.212,2.734,6.6,2.734
			s4.778-0.911,6.6-2.734C489.361,305.418,489.364,229.858,442.928,183.423z"/>
	</g>
</g>
<g>
	<g>
		<circle cx="393.768" cy="147.454" r="9.335"/>
	</g>
</g>
</svg>