<?xml version="1.0" encoding="iso-8859-1"?>
<!-- Uploaded to: SVG Repo, www.svgrepo.com, Generator: SVG Repo Mixer Tools -->
<svg fill="#000000" height="800px" width="800px" version="1.1" id="Layer_1" xmlns="http://www.w3.org/2000/svg" xmlns:xlink="http://www.w3.org/1999/xlink" 
	 viewBox="0 0 512 512" xml:space="preserve">
<g>
	<g>
		<path d="M488.999,22.993c-30.658-30.656-80.54-30.659-111.201,0l-94.994,94.993c-4.637-1.656-9.576-2.519-14.646-2.519
			c-11.607,0-22.518,4.52-30.724,12.727c-12.241,12.241-15.631,30.029-10.181,45.348l-63.472,63.472
			c-3.937,3.937-3.937,10.319,0,14.256c3.938,3.936,10.321,3.937,14.258,0l60.513-60.513l41.345,41.345l41.345,41.345
			L143.709,450.984c-9.408,9.409-22.418,14.268-35.693,13.34c-13.473-0.949-26.746,2.199-38.367,9.097l-26.664,15.83l-20.232-20.232
			l15.829-26.664c6.898-11.62,10.045-24.887,9.099-38.368c-0.932-13.274,3.929-26.283,13.34-35.693l88.797-88.796
			c3.937-3.937,3.937-10.319,0-14.256s-10.319-3.937-14.258,0l-88.797,88.796c-13.54,13.541-20.535,32.261-19.193,51.362
			c0.657,9.369-1.53,18.589-6.323,26.663l-19.829,33.4c-2.352,3.963-1.718,9.017,1.54,12.275l31.31,31.31
			c1.944,1.944,4.524,2.953,7.132,2.953c1.765,0,3.545-0.462,5.144-1.413l33.4-19.829c8.077-4.795,17.297-6.982,26.663-6.322
			c19.085,1.337,37.824-5.655,51.363-19.196l180.493-180.493c4.719,1.679,9.671,2.523,14.626,2.523
			c11.124,0,22.254-4.237,30.724-12.705c12.241-12.243,15.631-30.031,10.181-45.351l32.209-32.209
			c3.937-3.937,3.937-10.319,0-14.256c-3.938-3.937-10.321-3.937-14.258,0L382.693,212l-82.692-82.691l92.058-92.058
			c22.794-22.794,59.887-22.797,82.684,0c22.801,22.8,22.801,59.898,0,82.697l-36.591,36.59c-3.937,3.937-3.937,10.319,0,14.256
			c1.969,1.969,4.549,2.953,7.129,2.953c2.579,0,5.16-0.984,7.129-2.953l36.591-36.59
			C519.661,103.544,519.661,53.654,488.999,22.993z M369.552,227.376c9.08,9.08,9.08,23.854,0.001,32.934
			c-9.084,9.08-23.855,9.078-32.934,0l-84.926-84.925c-9.08-9.08-9.08-23.854,0-32.934c4.397-4.398,10.245-6.82,16.466-6.82
			s12.069,2.422,16.466,6.82L369.552,227.376z"/>
	</g>
</g>
<g>
	<g>
		<path d="M276.834,282.356c-0.882-3.45-3.519-6.178-6.937-7.178l-61.781-18.059c-3.537-1.034-7.354-0.056-9.958,2.549
			L80.509,377.319c-7.237,7.236-11.221,16.856-11.221,27.089c0,10.233,3.984,19.853,11.22,27.088
			c7.236,7.236,16.856,11.221,27.088,11.221c10.232,0,19.853-3.984,27.089-11.22l39.209-39.211c3.937-3.937,3.937-10.321,0-14.258
			c-3.938-3.937-10.321-3.937-14.258,0l-39.208,39.209c-3.429,3.428-7.984,5.315-12.833,5.315c-4.846,0-9.404-1.887-12.831-5.315
			s-5.314-7.984-5.314-12.831c0-4.847,1.886-9.404,5.315-12.831l113.428-113.428l39.716,11.61l-66.359,66.359
			c-3.937,3.937-3.937,10.319,0,14.256c3.938,3.937,10.321,3.937,14.258,0l78.389-78.389
			C276.715,289.466,277.717,285.806,276.834,282.356z"/>
	</g>
</g>
</svg>