<?xml version="1.0" encoding="iso-8859-1"?>
<!-- Uploaded to: SVG Repo, www.svgrepo.com, Generator: SVG Repo Mixer Tools -->
<svg fill="#000000" height="800px" width="800px" version="1.1" id="Layer_1" xmlns="http://www.w3.org/2000/svg" xmlns:xlink="http://www.w3.org/1999/xlink" 
	 viewBox="0 0 512 512" xml:space="preserve">
<g>
	<g>
		<path d="M263.791,44.685c-4.432-4.003-11.179-3.995-15.604,0.02c-2.994,2.719-73.337,67.23-73.337,123.984
			c0,21.695,8.479,41.425,22.259,56.058c-37.869,3.541-72.579,10.471-101.552,20.347C16.578,272.016,0,314.924,0,346.179
			c0,31.255,16.578,74.162,95.557,101.085c8.708,2.968,18.072,5.709,27.835,8.146c0.945,0.236,1.891,0.349,2.825,0.349
			c5.209,0,9.95-3.528,11.268-8.811c1.555-6.229-2.233-12.539-8.462-14.094c-9.134-2.281-17.87-4.837-25.965-7.595
			c-52.212-17.798-79.809-45.143-79.809-79.079c0-33.937,27.597-61.283,79.809-79.08c33.6-11.455,75.697-18.725,121.741-21.031
			c1.396-0.07,2.797-0.135,4.199-0.195c0.187-0.008,0.368-0.035,0.553-0.052c8.296,2.885,17.189,4.474,26.449,4.474
			c44.746,0,81.151-36.608,81.151-81.606C337.15,111.598,266.787,47.391,263.791,44.685z M255.999,227.047
			c-31.927,0-57.902-26.179-57.902-58.358c0.001-33.887,36.637-77.833,57.92-99.268c21.284,21.354,57.885,65.172,57.885,99.268
			C313.902,200.867,287.926,227.047,255.999,227.047z"/>
	</g>
</g>
<g>
	<g>
		<path d="M173.119,449.113c-0.151-0.732-0.372-1.465-0.663-2.174c-0.291-0.698-0.652-1.372-1.069-1.999
			c-0.43-0.639-0.907-1.232-1.453-1.767c-0.535-0.535-1.128-1.023-1.768-1.453c-0.628-0.418-1.302-0.779-1.999-1.069
			s-1.429-0.511-2.174-0.663c-1.5-0.302-3.046-0.302-4.545,0c-0.744,0.151-1.476,0.372-2.174,0.663s-1.382,0.651-2.01,1.069
			c-0.639,0.43-1.232,0.918-1.768,1.453c-0.535,0.535-1.023,1.128-1.44,1.767c-0.418,0.628-0.779,1.302-1.069,1.999
			c-0.291,0.709-0.511,1.441-0.663,2.174c-0.151,0.756-0.232,1.523-0.232,2.278s0.081,1.523,0.232,2.267s0.372,1.476,0.663,2.174
			c0.291,0.709,0.651,1.383,1.069,2.011c0.417,0.639,0.906,1.232,1.44,1.767c0.536,0.535,1.129,1.023,1.768,1.441
			c0.628,0.418,1.314,0.779,2.01,1.069c0.699,0.291,1.43,0.511,2.174,0.663c0.756,0.151,1.512,0.232,2.267,0.232
			c0.767,0,1.524-0.081,2.278-0.232c0.745-0.151,1.477-0.372,2.174-0.663s1.372-0.651,1.999-1.069
			c0.64-0.418,1.233-0.907,1.768-1.441c0.546-0.535,1.023-1.128,1.453-1.767c0.417-0.628,0.779-1.302,1.069-2.011
			c0.291-0.697,0.51-1.43,0.663-2.174c0.151-0.744,0.22-1.511,0.22-2.267S173.269,449.868,173.119,449.113z"/>
	</g>
</g>
<g>
	<g>
		<path d="M453.389,261.094c-5.628-3.096-12.694-1.044-15.788,4.582c-3.094,5.625-1.043,12.694,4.581,15.788
			c30.902,16.999,46.57,38.771,46.57,64.715c0,33.937-27.597,61.282-79.809,79.079c-41.248,14.062-95.566,21.805-152.942,21.805
			c-6.419,0-11.624,5.204-11.624,11.624s5.205,11.624,11.624,11.624c59.862,0,116.842-8.186,160.443-23.048
			C495.422,420.341,512,377.433,512,346.178C512,322.072,501.831,287.743,453.389,261.094z"/>
	</g>
</g>
<g>
	<g>
		<path d="M425.05,254.152c-0.151-0.732-0.372-1.465-0.663-2.174c-0.291-0.697-0.651-1.372-1.069-1.999
			c-0.417-0.639-0.906-1.232-1.44-1.767c-0.535-0.535-1.129-1.023-1.768-1.453c-0.628-0.418-1.302-0.779-2.01-1.069
			c-0.699-0.291-1.43-0.511-2.174-0.663c-1.5-0.302-3.046-0.302-4.545,0c-0.744,0.151-1.465,0.372-2.174,0.663
			c-0.697,0.291-1.372,0.651-1.999,1.069c-0.639,0.43-1.233,0.907-1.768,1.453c-0.546,0.535-1.023,1.128-1.453,1.767
			c-0.417,0.628-0.779,1.302-1.069,1.999c-0.291,0.709-0.51,1.441-0.663,2.174c-0.151,0.756-0.22,1.511-0.22,2.278
			c0,0.756,0.07,1.523,0.22,2.267c0.152,0.744,0.372,1.476,0.663,2.174s0.652,1.383,1.069,2.011c0.43,0.639,0.907,1.232,1.453,1.767
			c0.535,0.535,1.129,1.023,1.768,1.441c0.628,0.418,1.302,0.779,1.999,1.069c0.709,0.291,1.43,0.511,2.174,0.663
			c0.754,0.151,1.523,0.232,2.278,0.232c0.756,0,1.523-0.081,2.267-0.232s1.476-0.372,2.174-0.663
			c0.708-0.291,1.382-0.651,2.01-1.069c0.639-0.418,1.233-0.907,1.768-1.441c0.535-0.535,1.023-1.128,1.44-1.767
			c0.418-0.628,0.779-1.314,1.069-2.011s0.511-1.43,0.663-2.174s0.232-1.511,0.232-2.267
			C425.282,255.663,425.201,254.907,425.05,254.152z"/>
	</g>
</g>
<g>
	<g>
		<path d="M402.376,291.858c-39.178-13.354-91.163-20.71-146.376-20.71c-55.214,0-107.198,7.355-146.376,20.71
			c-41.546,14.162-63.506,32.945-63.506,54.32c0,21.375,21.96,40.158,63.506,54.32c39.177,13.354,91.161,20.708,146.376,20.708
			c55.215,0,107.199-7.355,146.376-20.708c41.546-14.163,63.506-32.946,63.506-54.32
			C465.882,324.804,443.922,306.02,402.376,291.858z M394.875,378.495c-36.825,12.553-86.144,19.466-138.875,19.466
			c-52.731,0-102.05-6.913-138.875-19.466c-32.814-11.186-47.759-24.592-47.759-32.315s14.945-21.13,47.759-32.315
			c36.827-12.553,86.146-19.467,138.875-19.467s102.049,6.913,138.875,19.467c32.814,11.185,47.759,24.592,47.759,32.315
			C442.634,353.903,427.689,367.309,394.875,378.495z"/>
	</g>
</g>
<g>
	<g>
		<path d="M337.04,352.748c-0.882-6.358-6.762-10.795-13.112-9.914c-21.247,2.95-44.101,4.445-67.928,4.445
			c-40.391,0-77.694-4.264-107.875-12.331c-6.205-1.658-12.573,2.027-14.231,8.229c-1.658,6.202,2.026,12.574,8.229,14.232
			c32.111,8.583,71.489,13.119,113.878,13.119c24.892,0,48.822-1.57,71.125-4.667C333.484,364.978,337.922,359.107,337.04,352.748z"
			/>
	</g>
</g>
<g>
	<g>
		<path d="M374.365,343.908c-1.656-6.2-8.026-9.889-14.233-8.225l-0.836,0.223c-5.197,1.39-8.625,6.09-8.624,11.224
			c0.001,0.994,0.129,2.004,0.399,3.008c1.389,5.196,6.088,8.623,11.222,8.623c0.993,0,2.005-0.129,3.011-0.398l0.836-0.223
			c5.197-1.39,8.625-6.089,8.624-11.224C374.763,345.924,374.635,344.914,374.365,343.908z"/>
	</g>
</g>
</svg>